<?xml version="1.0" encoding="iso-8859-1"?>
<!-- Uploaded to: SVG Repo, www.svgrepo.com, Generator: SVG Repo Mixer Tools -->
<svg fill="#000000" height="800px" width="800px" version="1.1" id="Layer_1" xmlns="http://www.w3.org/2000/svg" xmlns:xlink="http://www.w3.org/1999/xlink" 
	 viewBox="0 0 512 512" xml:space="preserve">
<g>
	<g>
		<path d="M503.467,110.933l-85.333-64c-3.691-2.773-8.171-4.267-12.8-4.267h-128V21.333C277.333,9.557,267.797,0,256,0
			s-21.333,9.557-21.333,21.333v21.333h-128c-11.797,0-21.333,9.557-21.333,21.333v128c0,11.776,9.536,21.333,21.333,21.333h128
			v21.333h-128c-4.629,0-9.109,1.493-12.8,4.267l-85.333,64C3.157,306.965,0,313.28,0,320s3.157,13.035,8.533,17.067l85.333,64
			c3.691,2.773,8.171,4.267,12.8,4.267h128v85.333c0,11.776,9.536,21.333,21.333,21.333s21.333-9.557,21.333-21.333v-85.333h128
			c11.797,0,21.333-9.557,21.333-21.333V256c0-11.776-9.536-21.333-21.333-21.333h-128v-21.333h128c4.629,0,9.109-1.493,12.8-4.267
			l85.333-64C508.843,141.035,512,134.72,512,128C512,121.28,508.843,114.965,503.467,110.933z"/>
	</g>
</g>
</svg>